<svg width="44" height="77" viewBox="0 0 44 77" fill="none" xmlns="http://www.w3.org/2000/svg">
<path fill-rule="evenodd" clip-rule="evenodd" d="M41.7695 74.9577C43.7222 73.005 43.7222 69.8392 41.7695 67.8866L12.094 38.2111L41.7695 8.53556C43.7222 6.58294 43.7222 3.41712 41.7695 1.4645C39.8169 -0.488125 36.6511 -0.488125 34.6985 1.4645L1.89268 34.2703C1.74452 34.3881 1.6015 34.5155 1.46446 34.6526C0.482302 35.6347 -0.00583426 36.9238 4.41857e-05 38.2111C-0.00583045 39.4983 0.482306 40.7874 1.46446 41.7696C1.6015 41.9066 1.74452 42.0341 1.89268 42.1519L34.6985 74.9577C36.6511 76.9103 39.8169 76.9103 41.7695 74.9577Z" fill="white"/>
<path fill-rule="evenodd" clip-rule="evenodd" d="M41.7695 74.9577C43.7222 73.005 43.7222 69.8392 41.7695 67.8866L12.094 38.2111L41.7695 8.53556C43.7222 6.58294 43.7222 3.41712 41.7695 1.4645C39.8169 -0.488125 36.6511 -0.488125 34.6985 1.4645L1.89268 34.2703C1.74452 34.3881 1.6015 34.5155 1.46446 34.6526C0.482302 35.6347 -0.00583426 36.9238 4.41857e-05 38.2111C-0.00583045 39.4983 0.482306 40.7874 1.46446 41.7696C1.6015 41.9066 1.74452 42.0341 1.89268 42.1519L34.6985 74.9577C36.6511 76.9103 39.8169 76.9103 41.7695 74.9577Z" fill="white"/>
</svg>
