<svg width="44" height="77" viewBox="0 0 44 77" fill="none" xmlns="http://www.w3.org/2000/svg">
<path fill-rule="evenodd" clip-rule="evenodd" d="M1.46447 1.4645C-0.488154 3.41712 -0.488153 6.58294 1.46447 8.53557L31.14 38.2111L1.46447 67.8866C-0.488155 69.8392 -0.488155 73.005 1.46447 74.9577C3.41709 76.9103 6.58291 76.9103 8.53553 74.9577L41.3413 42.1519C41.4895 42.034 41.6325 41.9066 41.7696 41.7696C42.7517 40.7874 43.2398 39.4983 43.234 38.2111C43.2398 36.9238 42.7517 35.6347 41.7696 34.6526C41.6325 34.5155 41.4895 34.3881 41.3413 34.2703L8.53554 1.4645C6.58291 -0.488125 3.41709 -0.488125 1.46447 1.4645Z" fill="white"/>
<path fill-rule="evenodd" clip-rule="evenodd" d="M1.46447 1.4645C-0.488154 3.41712 -0.488153 6.58294 1.46447 8.53557L31.14 38.2111L1.46447 67.8866C-0.488155 69.8392 -0.488155 73.005 1.46447 74.9577C3.41709 76.9103 6.58291 76.9103 8.53553 74.9577L41.3413 42.1519C41.4895 42.034 41.6325 41.9066 41.7696 41.7696C42.7517 40.7874 43.2398 39.4983 43.234 38.2111C43.2398 36.9238 42.7517 35.6347 41.7696 34.6526C41.6325 34.5155 41.4895 34.3881 41.3413 34.2703L8.53554 1.4645C6.58291 -0.488125 3.41709 -0.488125 1.46447 1.4645Z" fill="white"/>
</svg>
